<svg xmlns="http://www.w3.org/2000/svg" xmlns:xlink="http://www.w3.org/1999/xlink" xml:space="preserve" style="shape-rendering:geometricPrecision;text-rendering:geometricPrecision;image-rendering:optimizeQuality;" viewBox="0 0 17.0992 45.376374999999996" x="0px" y="0px" fill-rule="evenodd" clip-rule="evenodd"><defs><style type="text/css">
   
    .str0 {stroke:#fff;stroke-width:0.337083}
    .fil0 {fill:#fff}
   
  </style></defs><g><path class="fil0 str0" d="M16.4879 0.0119439l-0.251707 9.13487 -0.739637 0 -0.370261 -9.13487 -0.17385 9.06763 -0.740079 0 -0.598522 -9.06763 -0.0694516 9.06763 -0.740079 0 -0.655145 -9.06763 0 11.9107c3.90654,2.88423 1.15413,18.2636 0.134037,22.6766 -0.445021,1.92474 5.00449,1.93712 4.50904,0 -0.867039,-3.38676 -3.64864,-21.2385 0.134037,-22.6766l-0.438385 -11.9107z"/><path class="fil0 str0" d="M3.97201 14.3875c-2.00171,-2.2052 -4.3405,-4.7696 -3.6942,-7.77017 1.7677,-8.21165 6.46652,-8.91723 8.53458,-0.126959 0.725481,3.08639 -1.4722,5.7574 -3.43984,7.89713 -0.130056,8.67481 -0.00752023,11.7776 1.65666,20.3812 0.349912,1.80972 -5.35529,1.82697 -4.90496,0 2.1645,-8.76903 2.33039,-11.3971 1.84777,-20.3812z"/></g><text x="0" y="51.3011" fill="#fff" font-size="5px" font-weight="bold" font-family="'Helvetica Neue', Helvetica, Arial-Unicode, Arial, Sans-serif"></text><text x="0" y="56.3011" fill="#fff" font-size="5px" font-weight="bold" font-family="'Helvetica Neue', Helvetica, Arial-Unicode, Arial, Sans-serif"></text></svg>