<svg fill="#fff" xmlns:dc="http://purl.org/dc/elements/1.1/" xmlns:cc="http://creativecommons.org/ns#" xmlns:rdf="http://www.w3.org/1999/02/22-rdf-syntax-ns#" xmlns:svg="http://www.w3.org/2000/svg" xmlns="http://www.w3.org/2000/svg" xmlns:sodipodi="http://sodipodi.sourceforge.net/DTD/sodipodi-0.dtd" xmlns:inkscape="http://www.inkscape.org/namespaces/inkscape" version="1.1" x="0px" y="0px" viewBox="0 0 100 125"><g transform="translate(0,-952.36218)"><path style="color:#000000;enable-background:accumulate;" d="m 36.109375,968.14345 c -14.756643,0 -26.71875,11.98685 -26.71875,26.75 0,9.21065 4.664042,17.28665 11.75,22.09375 l 0,19.5937 27.78125,0 0,-8.5625 5.34375,0 c 6.783495,0 8.5625,-3.3242 8.5625,-8.5312 l 0,-4.2813 8.53125,0 -8.53125,-18.18745 0,-2.125 c 0,-14.76315 -11.962108,-26.75 -26.71875,-26.75 z m 34.625,12.25 0,14.46875 3.15625,0 -3.15625,10.4687 11.78125,-10.4687 8.09375,0 0,-14.46875 -19.875,0 z m 9.78125,27.15625 a 1.10011,1.10011 0 0 0 -0.5625,1.875 c 2.168434,2.2629 3.5625,5.6811 3.5625,9.5312 0,3.8502 -1.394096,7.2686 -3.5625,9.5313 a 1.10011,1.10011 0 1 0 1.5625,1.5312 c 2.600136,-2.7133 4.21875,-6.6748 4.21875,-11.0625 0,-4.3876 -1.618644,-8.3492 -4.21875,-11.0625 a 1.10011,1.10011 0 0 0 -1,-0.3437 z m -4.1875,3.6562 a 1.10011,1.10011 0 0 0 -0.59375,1.9063 c 1.53896,1.4263 2.5625,3.6872 2.5625,6.25 0,2.5629 -1.02354,4.8237 -2.5625,6.25 a 1.10011,1.10011 0 1 0 1.5,1.5937 c 2.02192,-1.8739 3.28125,-4.6954 3.28125,-7.8437 0,-3.1482 -1.25933,-5.9699 -3.28125,-7.8438 a 1.10011,1.10011 0 0 0 -0.90625,-0.3125 z" fill="#fff" fill-opacity="1" stroke="none" marker="none" visibility="visible" display="inline" overflow="visible"/></g><text x="0" y="115" fill="#000000" font-size="5px" font-weight="bold" font-family="'Helvetica Neue', Helvetica, Arial-Unicode, Arial, Sans-serif"></text><text x="0" y="120" fill="#000000" font-size="5px" font-weight="bold" font-family="'Helvetica Neue', Helvetica, Arial-Unicode, Arial, Sans-serif"></text></svg>