<svg xmlns="http://www.w3.org/2000/svg" xmlns:xlink="http://www.w3.org/1999/xlink" xml:space="preserve" version="1.1" style="shape-rendering:geometricPrecision;text-rendering:geometricPrecision;image-rendering:optimizeQuality;" viewBox="0 0 333 416.25" x="0px" y="0px" fill-rule="evenodd" clip-rule="evenodd"><defs><style type="text/css">
   
    .fil0 {fill:#fff}
   
  </style></defs><g><path class="fil0" d="M60 256l-10 -2c-5,11 -8,21 -8,26 1,9 10,23 18,32l0 -56zm13 -74l187 0c4,0 7,3 7,7l0 129c0,4 -3,7 -7,7l-187 0c-3,0 -6,-3 -6,-7l0 -129c0,-4 3,-7 6,-7zm84 55l23 0c3,0 6,3 6,6l0 21c0,3 -3,6 -6,6l-23 0c-4,0 -6,-3 -6,-6l0 -21c0,-3 2,-6 6,-6zm52 -121c-7,27 -26,46 -40,46 -14,0 -32,-19 -39,-46 -7,0 -13,-10 -13,-23 0,-5 1,-10 3,-13 -2,-8 -2,-17 -1,-25 -1,-2 -5,-2 -8,-7 4,2 11,1 12,-1 -2,0 -5,0 -11,-6 12,2 24,-13 30,-18 19,-15 41,-17 49,-12 7,4 13,11 17,20l6 -5c0,0 1,8 -3,10 5,2 13,6 11,23 0,7 -2,15 -4,22 1,4 2,8 2,12 0,12 -5,21 -11,23zm-73 41c1,7 3,14 6,20l-46 0c8,-8 20,-15 40,-20zm137 72c2,5 5,10 7,16l-7 1 0 -17zm-76 -72c0,7 -2,14 -6,20l46 0c-8,-8 -20,-15 -40,-20zm76 99l11 -2c4,11 8,21 7,26 0,9 -9,23 -18,32l0 -56zm-213 -27c-2,5 -4,10 -6,16l6 1 0 -17z"/></g><text x="0" y="348" fill="#000000" font-size="5px" font-weight="bold" font-family="'Helvetica Neue', Helvetica, Arial-Unicode, Arial, Sans-serif"></text><text x="0" y="353" fill="#000000" font-size="5px" font-weight="bold" font-family="'Helvetica Neue', Helvetica, Arial-Unicode, Arial, Sans-serif"></text></svg>