<svg fill="#fff" xmlns="http://www.w3.org/2000/svg" xmlns:xlink="http://www.w3.org/1999/xlink" version="1.1" x="0px" y="0px" viewBox="0 0 100 125" enable-background="new 0 0 100 100" xml:space="preserve"><g><path d="M66.904,41.464c2.523-2.838,3.918-6.446,3.918-10.275c-0.002-8.539-6.951-15.486-15.494-15.486   c-8.542,0.002-15.489,6.953-15.487,15.494c0.001,4.374,1.832,8.322,4.759,11.142c-7.621,2.89-13.161,9.206-15.252,14.356   c-0.028,0.068-0.044,0.139-0.062,0.209H22.03c-1.717,0-3.114,1.396-3.114,3.113c0,0.047,0.003,0.092,0.01,0.139l2.862,20.604   c0.022,0.952,0.483,1.789,1.178,2.346c0.131,0.399,0.495,0.692,0.938,0.692h0.997h29.651h0.996c0.119,0,0.231-0.022,0.347-0.034   c1.625-0.096,2.336-0.445,4.545-1.568c4.391-2.332,11.871-6.42,12.642-7.59c0.21-0.318,0.308-0.605,0.339-0.856   c3.484-1.093,7.796-3.074,8.133-9.644C81.98,55.756,78.282,45.726,66.904,41.464z M42.841,31.196   c-0.001-3.337,1.298-6.474,3.656-8.833c2.358-2.36,5.495-3.66,8.835-3.661c6.886,0,12.488,5.602,12.49,12.486   c0,3.337-1.299,6.475-3.656,8.835c-2.357,2.359-5.495,3.659-8.831,3.66h-0.004C48.445,43.684,42.843,38.082,42.841,31.196z    M24.901,81.798c-0.614,0-1.114-0.499-1.114-1.112c0-0.047-0.003-0.092-0.01-0.139l-2.859-20.588   c0.03-0.587,0.518-1.057,1.112-1.057h30.647c0.614,0,1.114,0.5,1.114,1.115c0,0.045,0.003,0.092,0.01,0.137l2.858,20.589   c-0.029,0.563-0.482,1.007-1.046,1.042c-0.299,0.011-0.643,0.013-1.062,0.013H24.901z M59.477,80.441   c-0.312,0.158-0.586,0.297-0.832,0.422c0.004-0.061,0.019-0.117,0.019-0.18c0-0.045-0.003-0.092-0.011-0.138l-0.145-1.038h0.508   c0.332,0,0.601-0.27,0.601-0.6c0-0.331-0.269-0.6-0.601-0.6h-0.674l-0.029-0.207h3.193c0.331,0,0.6-0.27,0.6-0.601   s-0.269-0.601-0.6-0.601h-3.359l-0.028-0.207h5.879c0.331,0,0.601-0.269,0.601-0.6c0-0.33-0.27-0.6-0.601-0.6h-6.045l-0.224-1.605   l3.893-0.002c1.662,0.612,3.641,0.846,5.497,0.846c0.981,0,1.928-0.063,2.774-0.17C67.656,75.973,63.426,78.344,59.477,80.441z    M78.557,63.951c-0.25,4.9-3.17,6.117-7.267,7.301c-3.442,0.998-9.804,0.555-10.494-1.673c-0.282-0.909-0.155-1.681,0.378-2.289   c0.916-1.048,2.852-1.495,4.93-1.146c2.222,0.383,3.393-0.399,3.987-1.117c1.787-2.155,0.528-6.141-1.038-10.381   c-0.287-0.777-1.152-1.176-1.927-0.887c-0.776,0.286-1.175,1.149-0.888,1.926c1.574,4.264,2.095,6.762,1.543,7.426   c-0.102,0.119-0.504,0.188-1.178,0.076c-3.135-0.533-6.076,0.285-7.688,2.127c-1.23,1.406-1.581,3.238-0.984,5.154   c0.166,0.535,0.428,1.004,0.752,1.422h-1.232l-1.659-11.949c-0.04-1.683-1.421-3.039-3.112-3.039h-7.41   c0.136-0.213,0.311-0.446,0.539-0.676c0.586-0.586,0.586-1.535,0-2.121s-1.535-0.586-2.121,0c-1.244,1.244-1.645,2.604-1.687,2.754   c-0.004,0.016-0.004,0.029-0.007,0.043h-9.447c1.86-3.772,6.79-10.09,14.958-12.364c2.301,1.354,4.97,2.146,7.826,2.146h0.004   c3.284-0.001,6.403-1.031,9.017-2.914C78.251,48.002,78.746,60.248,78.557,63.951z"/><path d="M52.191,41.454c0.026,0,0.055-0.001,0.082-0.002c0.586-0.031,0.904-0.042,1.178-0.051c0.465-0.016,0.805-0.026,1.999-0.119   c0.825-0.062,1.442-0.785,1.379-1.611c-0.063-0.825-0.771-1.455-1.611-1.379c-1.114,0.086-1.431,0.097-1.864,0.111   c-0.287,0.009-0.621,0.02-1.24,0.053c-0.826,0.044-1.461,0.751-1.418,1.578C50.738,40.834,51.4,41.454,52.191,41.454z"/><circle cx="38.789" cy="70.352" r="2.486"/></g><text x="0" y="115" fill="#000000" font-size="8px" font-weight="bold" font-family="'Helvetica Neue', Helvetica, Arial-Unicode, Arial, Sans-serif"></text><text x="0" y="120" fill="#fff" font-size="5px" font-weight="bold" font-family="'Helvetica Neue', Helvetica, Arial-Unicode, Arial, Sans-serif"></text></svg>