<svg fill="#fff" xmlns="http://www.w3.org/2000/svg" xmlns:xlink="http://www.w3.org/1999/xlink" version="1.1" x="0px" y="0px" viewBox="0 0 100 125" enable-background="new 0 0 100 100" xml:space="preserve"><g><path d="M78.293,57.428h-3.442c-0.604,0-1.147,0.121-1.66,0.362c-0.695-1.359-2.083-2.264-3.714-2.264h-3.442   c-0.543,0-1.026,0.09-1.51,0.272c-0.634-1.479-2.113-2.536-3.834-2.536H57.22c-0.392,0-0.785,0.06-1.147,0.151V34.725   c0-2.415-1.721-4.468-4.347-4.951l-3.442,0.03c-2.325,0.453-4.046,2.506-4.046,4.921v35.896c0,0.392-0.272,0.543-0.362,0.604   c-0.151,0.091-0.392,0.151-0.694-0.06c-0.483-0.332-0.966-0.695-1.479-1.117c-8.091-6.461-14.522-6.793-17.299-4.257   c-1.419,1.298-1.992,3.442-1.479,5.464c0.483,1.962,1.932,3.442,3.864,3.925c5.827,1.479,6.189,1.902,10.869,6.793l0.483,0.543   c0.543,0.574,1.66,2.325,2.838,4.166c1.966,3.129,3.771,5.911,5.462,8.011c1.58,1.963,3.805,3.246,6.293,3.651   c5.931,0.965,15.538,0.696,21.746-0.544c3.993-0.798,7.385-3.835,7.917-7.872c0.062-0.472,0.094-0.951,0.094-1.434V61.625   C82.49,59.317,80.601,57.428,78.293,57.428z"/><path d="M58.048,40.996c0.264,0.186,0.568,0.276,0.868,0.276c0.475,0,0.941-0.223,1.235-0.64c1.496-2.12,2.286-4.604,2.286-7.183   s-0.79-5.064-2.264-7.153c-0.618-0.926-1.408-1.785-2.345-2.552c-4.534-3.709-11.507-3.678-15.915-0.001   c-0.938,0.765-1.728,1.623-2.326,2.519c-1.496,2.12-2.286,4.605-2.286,7.186c0,2.583,0.792,5.067,2.288,7.185   c0.479,0.678,1.42,0.845,2.104,0.361c0.681-0.481,0.843-1.423,0.361-2.104c-1.134-1.605-1.734-3.488-1.734-5.443   c0-1.955,0.6-3.837,1.757-5.478c0.453-0.678,1.039-1.315,1.757-1.899c3.373-2.817,8.613-2.832,12.082,0.009   c0.706,0.578,1.294,1.213,1.767,1.922c1.135,1.61,1.735,3.492,1.735,5.445s-0.6,3.836-1.735,5.444   C57.203,39.574,57.365,40.516,58.048,40.996z"/><path d="M64.642,50.376c4.899-4.274,7.708-10.443,7.708-16.928c0-12.387-10.093-22.464-22.498-22.464   c-12.387,0-22.464,10.077-22.464,22.464c0,8.587,5.016,16.541,12.781,20.268c0.211,0.102,0.433,0.149,0.652,0.149   c0.563,0,1.103-0.315,1.362-0.856c0.361-0.752,0.044-1.653-0.708-2.014c-6.724-3.227-11.068-10.114-11.068-17.547   c0-10.723,8.722-19.445,19.445-19.445c10.741,0,19.479,8.722,19.479,19.445c0,5.612-2.432,10.953-6.673,14.651   c-0.628,0.548-0.693,1.502-0.146,2.13C63.06,50.858,64.012,50.92,64.642,50.376z"/><path d="M40.377,64.418c0.147,0.046,0.298,0.066,0.444,0.066c0.646,0,1.244-0.417,1.443-1.066c0.245-0.798-0.203-1.642-0.999-1.887   c-12.402-3.811-20.735-15.095-20.735-28.082c0-16.188,13.154-29.357,29.322-29.357c16.188,0,29.357,13.17,29.357,29.357   c0,6.581-2.124,12.8-6.144,17.985c-0.512,0.657-0.391,1.607,0.268,2.117c0.659,0.513,1.605,0.392,2.117-0.268   c4.434-5.718,6.778-12.576,6.778-19.833c0-17.852-14.525-32.377-32.377-32.377c-17.833,0-32.341,14.525-32.341,32.377   C17.51,47.77,26.7,60.215,40.377,64.418z"/></g><text x="0" y="115" fill="#000000" font-size="5px" font-weight="bold" font-family="'Helvetica Neue', Helvetica, Arial-Unicode, Arial, Sans-serif"></text><text x="0" y="120" fill="#000000" font-size="5px" font-weight="bold" font-family="'Helvetica Neue', Helvetica, Arial-Unicode, Arial, Sans-serif"></text></svg>